<svg width="18" height="18" viewBox="0 0 18 18" fill="none" xmlns="http://www.w3.org/2000/svg">
<g id="Group">
<g id="Group_2">
<g id="Group_3">
<path id="Vector" d="M10.938 8.47806C10.9313 8.57644 10.8744 8.66499 10.7707 8.75354C10.7306 8.78634 10.6871 8.81913 10.647 8.84865C10.6102 8.87816 10.5768 8.90768 10.54 8.93392C10.3995 9.04214 10.2523 9.11102 10.0985 9.13725C9.50647 9.23892 9.12518 9.25204 8.97468 9.17661C8.80075 9.09134 8.75393 8.76666 8.73386 8.64531V8.60596C8.71045 8.50429 8.65025 8.29112 8.6469 8.28784C8.6469 8.28128 8.64355 8.278 8.64355 8.27472C8.65024 8.25504 8.69038 8.22881 8.71045 8.21241L8.73386 8.18945C8.90778 8.03531 9.12184 7.87461 9.40948 7.83526C9.50982 7.82214 9.60347 7.78606 9.69377 7.75327C9.73725 7.73359 9.78074 7.72047 9.82756 7.70735C9.90114 7.68112 9.96469 7.68112 10.0149 7.70079C10.2891 7.80246 10.5935 7.9402 10.8276 8.19601C10.9112 8.29112 10.9514 8.38623 10.9447 8.48134L10.938 8.47806Z" fill="#FFE888"/>
<path id="Vector_2" d="M9.93784 10.1835C9.8375 10.2623 9.72712 10.3639 9.63347 10.4918C9.55989 10.5935 9.44952 10.6296 9.33914 10.6558C9.33245 10.6558 9.32911 10.6591 9.32577 10.6591L8.97124 10.7608C8.94782 10.7706 8.91103 10.7804 8.86086 10.7935H8.84748C8.54981 10.8755 8.30231 10.8427 8.06149 10.6919C7.78723 10.5213 7.69692 10.2688 7.78723 9.96053C7.88757 9.64897 8.07487 9.45876 8.36251 9.38332C8.39595 9.37349 8.42606 9.35381 8.44612 9.34069C8.45616 9.33085 8.47957 9.31445 8.48626 9.31445C8.51302 9.32757 8.53309 9.36037 8.5565 9.38988C8.56988 9.40956 8.58326 9.42268 8.59329 9.4358C8.73711 9.60962 8.92441 9.69488 9.1485 9.69488H9.15853C9.36256 9.69488 9.55989 9.68177 9.7104 9.66537C9.89101 9.65553 9.97797 9.70144 10.0415 9.84903C10.0883 9.96381 10.0516 10.0819 9.93449 10.1803L9.93784 10.1835Z" fill="#F4D13D"/>
<path id="Vector_3" d="M7.42248 10.7804C7.42248 10.7804 7.41579 10.7869 7.41244 10.7902C7.32883 10.9083 7.06126 11.0034 6.86392 11.046C6.86058 11.046 6.85389 11.0493 6.84386 11.0493C6.77362 11.0788 6.69 11.0919 6.56625 11.0919C6.17158 11.151 6.07459 11.0985 6.07124 11.0985C6.06455 11.0886 6.05118 11.0788 6.0378 11.0755C6.01773 11.0722 5.99097 11.0624 5.9408 11.0427C5.7234 10.9509 5.50934 10.8591 5.29529 10.7672C5.20164 10.7312 5.17822 10.6918 5.17822 10.682C5.19829 10.3606 5.52272 9.94735 5.86053 9.94079L6.08462 9.93423C6.22175 9.92768 6.35219 9.9244 6.48598 9.92112C6.56625 9.91784 6.65655 9.9244 6.73014 9.96047C6.78699 9.98671 6.83382 9.99327 6.8773 9.97359C6.92747 9.95391 6.96426 9.91456 6.99436 9.84569L7.0044 9.81617C7.01443 9.78665 7.02781 9.75386 7.04119 9.72434C7.04453 9.7145 7.04788 9.7145 7.05122 9.71778C7.04788 9.79321 7.0646 9.85224 7.10808 9.8916C7.14487 9.93423 7.20508 9.95391 7.282 9.95063C7.22514 10.1868 7.30542 10.3999 7.37565 10.5902C7.38903 10.6295 7.40241 10.6754 7.4091 10.7213L7.41579 10.7607L7.41914 10.7738L7.42248 10.7804Z" fill="#FFE888"/>
<path id="Vector_4" d="M7.58296 8.90126C7.32542 9.17674 7.02106 9.35712 6.68325 9.43911C6.6197 9.45879 6.55281 9.45879 6.47923 9.46207C6.44578 9.46207 6.40899 9.46207 6.37889 9.46535C6.22169 9.46535 6.01098 9.45223 5.81365 9.344C5.47918 9.15379 5.41564 8.64873 5.58956 8.34373C5.68321 8.17647 5.80027 8.06824 5.95412 8.01249C6.1247 7.95018 6.30865 7.91082 6.50264 7.89771H6.53274C6.64981 7.89771 6.75015 7.9469 6.81035 8.04529C6.93076 8.24534 7.10802 8.35357 7.36556 8.38636C7.50604 8.39948 7.61306 8.47819 7.65654 8.5897C7.69668 8.69792 7.66658 8.81271 7.57962 8.90782L7.58296 8.90126Z" fill="#F4D13D"/>
<path id="Vector_5" d="M9.07457 7.4221C8.88393 7.64839 8.63307 7.78941 8.3655 7.94027L8.34209 7.95339C8.12135 8.00259 7.94408 7.98947 7.93739 7.98947C7.69323 7.99603 7.49924 7.95011 7.32532 7.85173C7.17816 7.77302 7.06444 7.5664 7.04437 7.34995C7.03434 7.23188 7.04772 7.00559 7.25174 6.84489C7.35543 6.75963 7.45242 6.70387 7.54607 6.66452L7.60962 6.635C7.60962 6.635 7.74675 6.55957 7.97084 6.55957C7.98422 6.55957 8.00094 6.56285 8.01432 6.56285C8.118 6.57597 8.22168 6.58253 8.31868 6.58581C8.3956 6.58909 8.47588 6.58909 8.55615 6.59565C8.60297 6.60221 8.63977 6.60548 8.65983 6.60876C8.66318 6.61204 8.66987 6.61532 8.6799 6.61532C8.71 6.62188 8.81034 6.65468 8.93075 6.7629C9.07122 6.89081 9.08795 6.93672 9.10801 6.98592C9.10801 6.99248 9.11136 6.99903 9.1147 7.00559C9.22173 7.13678 9.2117 7.25484 9.07457 7.4221Z" fill="#F4D13D"/>
</g>
<path id="Vector_6" d="M17.968 8.59288C17.9312 8.46498 17.8543 8.38299 17.7305 8.34035C17.6135 8.301 17.4998 8.26492 17.3894 8.21245C17.0014 8.03207 16.5766 7.85497 16.1218 7.77298C15.8207 7.71723 15.5097 7.66804 15.212 7.62212C14.921 7.57621 14.6167 7.53029 14.3223 7.47782C13.8708 7.39583 13.3892 7.36304 12.8975 7.37943C13.1651 7.2089 13.329 6.95637 13.4527 6.73336C13.4929 6.66448 13.5297 6.59233 13.5665 6.52346C13.6066 6.44803 13.6467 6.3726 13.6902 6.30045C13.8675 5.98889 13.8441 5.71669 13.6099 5.45104C13.5163 5.34281 13.4059 5.30674 13.2688 5.33625C12.9444 5.40184 12.6166 5.50679 12.1985 5.66749C12.0647 5.71996 11.9276 5.76588 11.7938 5.80523C11.5329 5.8905 11.262 5.97577 11.0112 6.13319C11.0145 6.12663 11.0145 6.12007 11.0178 6.11679L11.0279 6.09384C11.1015 5.90362 11.175 5.71669 11.2486 5.52647C11.3924 5.16572 11.5396 4.79184 11.6734 4.41797C11.7771 4.12937 11.8741 3.8342 11.9677 3.54888C12.0848 3.19796 12.2018 2.83393 12.3323 2.48302C12.4861 2.06979 12.4494 1.69592 12.2219 1.345C12.1651 1.25973 12.0814 1.12855 11.9142 1.11215C11.5597 1.08263 11.2787 1.18758 11.0881 1.43027L11.0346 1.49586C10.8473 1.73199 10.6533 1.97468 10.4459 2.20097C10.2385 2.42726 10.0111 2.647 9.7937 2.86017C9.57965 3.0635 9.36225 3.27667 9.15822 3.49641C9.15154 3.50297 9.14485 3.50953 9.13816 3.51608C9.13481 3.51608 9.13481 3.51936 9.13147 3.51936C9.08464 3.37506 9.03447 3.23404 8.9843 3.09302C8.94082 2.97167 8.89734 2.85033 8.8572 2.72898C8.77359 2.48957 8.64649 2.26984 8.47926 2.07963C8.27858 1.85334 8.04781 1.82054 7.79027 1.97796C7.41232 2.21081 7.13471 2.56828 6.94407 3.07334C6.76346 3.5456 6.76346 4.03754 6.77349 4.50324C6.77684 4.56555 6.77684 4.62458 6.77684 4.6869C6.76011 4.65082 6.74674 4.61474 6.73001 4.57867C6.64305 4.36878 6.5494 4.14904 6.40558 3.95883C6.31528 3.84404 6.22497 3.73254 6.13132 3.61775C6.00423 3.46033 5.87379 3.29963 5.75004 3.13565C5.37209 2.6142 4.91722 2.11242 4.2784 1.5057C3.97069 1.2171 3.63623 0.921934 3.19139 0.548062C3.14122 0.508707 3.09439 0.466072 3.04757 0.426717C2.91044 0.308652 2.76996 0.187308 2.61945 0.082361C2.56259 0.0462856 2.39871 -0.0652203 2.24485 0.0528447C2.01407 0.233222 1.89701 0.433276 1.88363 0.662847C1.87025 0.902257 1.90036 1.14495 1.93046 1.35156C1.97394 1.63688 2.05087 1.90909 2.15121 2.23377C2.23482 2.50269 2.32847 2.78802 2.46895 3.05694C2.58266 3.26356 2.70307 3.48985 2.78334 3.73254C2.86027 3.96867 2.97064 4.21464 3.12784 4.5098C3.31848 4.86727 3.53923 5.21163 3.75329 5.54615C3.84694 5.69373 3.94058 5.83803 4.03423 5.98889C4.10447 6.09712 4.17471 6.21846 4.2416 6.35292C4.21819 6.33981 4.19478 6.32669 4.16802 6.31685C3.58271 6.05776 3.04087 5.89378 2.51242 5.81507C2.47898 5.80851 2.44219 5.80523 2.4054 5.80195L2.33516 5.79212C1.77326 5.70685 1.26153 5.72652 0.769867 5.84459C0.689596 5.86427 0.619359 5.90362 0.555811 5.95937C0.378545 6.11679 0.34844 6.47755 0.495604 6.71368C0.652802 6.96949 0.883585 7.1597 1.10433 7.34008L1.14112 7.36959C1.18126 7.40567 1.22474 7.44175 1.26487 7.47782C1.41873 7.609 1.57927 7.74019 1.75319 7.85825C1.61606 7.83202 1.48228 7.8189 1.34515 7.8189C0.836761 7.8189 0.41868 8.04519 0.100939 8.49449C0.0173233 8.61256 -0.0161226 8.74046 0.00728983 8.85853C0.0307023 8.98315 0.114319 9.09466 0.248104 9.1832C0.321686 9.2324 0.405303 9.27175 0.488919 9.31111C0.686253 9.40294 0.886927 9.48821 1.08092 9.55708C1.26822 9.62595 1.42876 9.73745 1.59599 9.85552C1.64616 9.89159 1.69967 9.92767 1.74984 9.96047C1.96725 10.1048 2.19134 10.1835 2.43215 10.1999C2.4656 10.1999 2.49905 10.2032 2.53249 10.2064C2.5927 10.2097 2.6529 10.2163 2.70976 10.2163C2.69638 10.2261 2.68635 10.236 2.67297 10.2458C2.62614 10.2753 2.57932 10.3081 2.53584 10.3409C2.14786 10.6393 1.76991 10.9968 1.3117 11.5051C0.890273 11.9741 0.569188 12.4956 0.361821 13.0531C0.131041 13.6762 0.0909048 14.237 0.241414 14.7618C0.361821 15.1816 0.445436 15.3849 1.05082 15.421C1.40869 15.4406 1.62609 15.3226 1.75988 15.0373C1.8368 14.87 1.9639 14.7224 2.14451 14.5847C2.32178 14.4535 2.48901 14.2862 2.64286 14.0895C2.9606 13.6762 3.39541 13.1449 3.92052 12.6956C3.94393 12.676 3.97069 12.6563 3.99744 12.6399C4.00748 12.6333 4.02086 12.6235 4.03089 12.6169L4.01082 12.6891C3.97403 12.8104 3.93724 12.935 3.90714 13.0597C3.78339 13.5614 3.70311 14.0927 3.67301 14.6437C3.63622 15.3127 3.64626 15.867 3.70312 16.3917C3.72987 16.618 3.78673 16.9099 3.98407 17.1592L3.99744 17.1755C4.04427 17.2346 4.10447 17.3067 4.20481 17.3067H4.21819C4.41887 17.2903 4.6764 17.2477 4.87039 17.0345C4.92056 16.9788 4.97073 16.923 5.01756 16.8673C5.06773 16.8115 5.11455 16.7558 5.16472 16.7033L5.27175 16.5852C5.50253 16.3294 5.74 16.0638 5.9273 15.7653C5.93734 15.7489 5.94403 15.7424 5.94403 15.7391C5.94737 15.7424 5.95406 15.7489 5.96075 15.762C5.98416 15.8014 6.01426 15.8342 6.04437 15.867L6.06108 15.8867C6.10791 15.9359 6.15139 15.9588 6.20156 15.9621C6.24504 15.9654 6.29187 15.9424 6.33535 15.9031C6.38552 15.8572 6.43569 15.8145 6.48586 15.7719C6.68319 15.5981 6.88721 15.421 7.01431 15.1684C7.03438 15.1324 7.06113 15.0963 7.09793 15.0602C7.10796 15.0471 7.3287 14.7552 7.41567 14.5912L7.42236 14.5814C7.42236 14.5814 7.42904 14.565 7.43239 14.5617C7.55949 14.2895 7.63307 14.0403 7.65982 13.8041C7.66317 13.7713 7.6732 13.7451 7.69996 13.7123C7.72337 13.6861 7.75682 13.6467 7.78358 13.6402C7.82371 13.7254 8.10131 14.2895 8.28193 14.5125C8.29196 14.5256 8.302 14.5388 8.31203 14.5519L8.33544 14.5781C8.4525 14.729 8.57291 14.8831 8.70335 15.0274C9.08464 15.4439 9.49938 15.8834 9.99773 16.2409C10.4359 16.5557 10.8707 16.7558 11.3256 16.8476C11.6165 16.9099 11.8841 16.6902 11.941 16.4573C11.9844 16.2737 11.951 16.1031 11.9075 15.9293C11.8674 15.7719 11.8306 15.6145 11.7938 15.4538C11.7336 15.2045 11.6734 14.9454 11.6065 14.6929C11.466 14.1747 11.2821 13.5746 10.951 13.0203L10.9811 13.0302C11.0279 13.0498 11.0747 13.0662 11.1249 13.0859L11.2419 13.1285C11.4827 13.2204 11.7303 13.3122 11.9844 13.3778C12.4594 13.4959 12.9276 13.486 13.4494 13.4598C13.7671 13.4467 14.0447 13.3352 14.2755 13.1285C14.3558 13.0597 14.3759 12.981 14.3357 12.8826C14.3056 12.8071 14.2555 12.7514 14.2019 12.6989L14.1752 12.6661C14.0916 12.5776 14.0113 12.489 13.9277 12.4005C13.7604 12.2234 13.5865 12.043 13.436 11.8495C13.3925 11.7905 13.3457 11.7347 13.3022 11.6757C13.1183 11.4363 12.9276 11.1903 12.7069 10.9706C12.6467 10.9115 12.5965 10.8427 12.543 10.7705L12.5029 10.718C12.5029 10.718 12.4995 10.7115 12.4962 10.7115H12.5029C12.8139 10.7443 13.125 10.7312 13.4494 10.6689C13.9511 10.577 14.4494 10.5016 14.9344 10.4327C15.0582 10.413 15.1786 10.3967 15.3023 10.3803C15.5599 10.3442 15.8274 10.3081 16.0883 10.2556C16.2087 10.2327 16.3191 10.1868 16.4295 10.1376C16.6502 10.0359 16.8375 9.96047 17.0248 9.90471C17.2456 9.83256 17.5265 9.72106 17.7272 9.47837C17.9713 9.18648 18.0516 8.89788 17.968 8.59288ZM11.8707 6.18239L11.941 6.15943C12.058 6.11679 12.1717 6.07744 12.2855 6.03808C12.5664 5.94298 12.8607 5.84131 13.1417 5.72324C13.1986 5.69701 13.2521 5.69701 13.2922 5.72324C13.3424 5.75604 13.3725 5.83147 13.3725 5.9233C13.3725 6.00201 13.3123 6.1004 13.2721 6.16599C13.0915 6.47099 12.8775 6.82518 12.6333 7.14986C12.5229 7.304 12.3691 7.40567 12.1751 7.45486C12.1082 7.47454 12.0413 7.49094 11.9744 7.50734C11.767 7.55653 11.5563 7.60572 11.359 7.70411C11.0312 7.87137 10.7938 8.04191 10.6098 8.24524L10.5931 8.26492L10.563 8.29444C10.4727 8.38627 10.4727 8.38955 10.3824 8.31083C10.1349 8.1075 9.9208 7.98944 9.69671 7.92712C9.70006 7.92384 9.7034 7.92384 9.70675 7.92056C9.77698 7.86809 9.84387 7.81562 9.91411 7.76314L10.0479 7.66476C10.1717 7.56965 10.2787 7.45486 10.379 7.34336C10.4426 7.27449 10.5095 7.20562 10.5763 7.14002C10.6165 7.10395 10.66 7.07115 10.7034 7.03836C10.7938 6.96949 10.8841 6.90061 10.9409 6.80223C11.1449 6.43819 11.4995 6.31357 11.8707 6.18239ZM7.09458 8.80933C7.22168 8.82245 7.31867 8.89132 7.35881 8.99299C7.3956 9.09138 7.36884 9.19632 7.28857 9.28159C7.05445 9.53084 6.78019 9.69482 6.47248 9.77025C6.41562 9.78665 6.35542 9.78665 6.28852 9.78993C6.25842 9.78993 6.22497 9.78993 6.19822 9.79321C6.0544 9.79321 5.86375 9.78009 5.68649 9.6817C5.38212 9.50788 5.32527 9.05202 5.48246 8.77326C5.56608 8.6224 5.67311 8.52401 5.81358 8.47153C5.96744 8.41578 6.13467 8.37971 6.31193 8.36659H6.33869C6.44572 8.36659 6.53602 8.4125 6.58954 8.50105C6.69991 8.68143 6.86046 8.77982 7.09458 8.80933ZM6.99089 7.41551C7.08454 7.3368 7.17151 7.28761 7.25847 7.25153L7.31532 7.22529C7.31532 7.22529 7.43908 7.15642 7.6431 7.15642C7.65648 7.15642 7.66986 7.1597 7.68324 7.1597C7.77689 7.17282 7.87054 7.1761 7.96084 7.17938C8.03108 7.17938 8.10466 7.17938 8.1749 7.18922C8.21838 7.19578 8.25183 7.19906 8.26855 7.20234C8.26855 7.20234 8.27858 7.2089 8.28527 7.2089C8.31203 7.21545 8.40233 7.24497 8.51271 7.34336C8.6398 7.45814 8.65653 7.50078 8.67325 7.54669C8.67325 7.55325 8.67659 7.55981 8.67994 7.56309C8.77693 7.68116 8.7669 7.78938 8.64315 7.94024C8.46923 8.14686 8.24179 8.27476 8.00098 8.40922L7.98091 8.42234C7.78023 8.46826 7.61969 8.45514 7.613 8.45514C7.39225 8.4617 7.21499 8.41906 7.05779 8.33051C6.92401 8.25836 6.82032 8.07143 6.8036 7.87465C6.79356 7.76642 6.80694 7.56309 6.99089 7.41551ZM7.57286 9.37998C7.65982 9.20616 7.68658 9.05202 7.65982 8.8946C7.65648 8.8782 7.65648 8.87164 7.65314 8.86836H7.68324C7.7033 8.86836 7.72672 8.87164 7.74679 8.86508C7.87723 8.86508 7.89729 8.8782 7.93408 8.98971C7.96084 9.06514 7.98091 9.14385 7.99763 9.22256L8.01436 9.29471C8.02105 9.31439 8.0177 9.33079 7.9876 9.3439L7.9575 9.35702C7.90399 9.38326 7.85047 9.4095 7.79695 9.42261C7.62638 9.46525 7.48256 9.5538 7.35212 9.68826L7.3354 9.70466C7.29526 9.74729 7.25847 9.78665 7.2083 9.80632C7.37219 9.68826 7.49594 9.54396 7.57286 9.37998ZM7.47252 10.2425C7.56283 9.96047 7.7334 9.78665 7.99429 9.71778C8.02439 9.70794 8.05115 9.69154 8.07122 9.67842C8.08125 9.66858 8.10132 9.65546 8.10801 9.65546C8.13142 9.66858 8.15149 9.6981 8.17156 9.72434C8.18494 9.74073 8.19497 9.75385 8.205 9.76697C8.33544 9.92439 8.50602 10.0031 8.71004 10.0031H8.72008C8.90403 10.0031 9.08464 9.98998 9.22177 9.97686C9.38566 9.96702 9.46593 10.0097 9.52279 10.1441C9.56627 10.2491 9.53283 10.354 9.4258 10.4458C9.33549 10.518 9.23515 10.6098 9.14819 10.7246C9.0813 10.8164 8.98096 10.8492 8.88062 10.8722C8.87393 10.8722 8.87058 10.8755 8.86724 10.8755L8.54615 10.9673C8.52609 10.9771 8.49264 10.9837 8.44582 10.9968H8.43244C8.16152 11.0722 7.93743 11.0427 7.72003 10.905C7.47253 10.7508 7.38891 10.5213 7.47252 10.2425ZM8.5495 9.53084C8.3923 9.45213 8.34882 9.16025 8.3321 9.04874V9.01267C8.31203 8.92084 8.25517 8.72734 8.25183 8.72406C8.25183 8.7175 8.25183 8.71422 8.25183 8.71094C8.25851 8.69455 8.29531 8.66831 8.31203 8.65519L8.3321 8.63551C8.4893 8.49449 8.68329 8.35019 8.94417 8.31411C9.03447 8.301 9.12143 8.2682 9.2017 8.23868C9.24184 8.22229 9.28197 8.20917 9.32211 8.19605C9.389 8.17309 9.44586 8.17309 9.49269 8.18949C9.74019 8.28132 10.0178 8.40594 10.2285 8.63879C10.3054 8.72406 10.3422 8.81261 10.3355 8.89788C10.3288 8.98643 10.2787 9.06842 10.185 9.14713C10.1482 9.17665 10.1081 9.20616 10.0713 9.2324C10.0379 9.25863 10.0078 9.28487 9.97432 9.31111C9.84722 9.4095 9.71343 9.47181 9.57296 9.49477C9.03447 9.58659 8.68998 9.59971 8.55285 9.53084H8.5495ZM9.72347 10.413C9.7335 10.3704 9.75022 10.3245 9.77364 10.2819C9.81377 10.213 9.85725 10.1244 9.85725 10.0162C9.85725 9.96375 9.84722 9.90799 9.82046 9.84896C9.91077 9.78337 9.99773 9.72106 10.0847 9.65218C10.1215 9.62595 10.1616 9.61611 10.2018 9.62923C10.262 9.64235 10.3054 9.6817 10.3255 9.74401C10.3255 9.74401 10.3589 9.80632 10.3623 9.91783C10.3623 10.0293 10.3322 10.1146 10.272 10.1671C10.2653 10.1704 10.262 10.1736 10.2553 10.1769C10.2553 10.1769 10.2452 10.1868 10.2385 10.19C10.2018 10.2163 10.165 10.2458 10.1282 10.272C10.0345 10.3475 9.94087 10.4163 9.82715 10.4393L9.75691 10.4491C9.73016 10.4557 9.72347 10.4458 9.72347 10.4458C9.72347 10.4458 9.71678 10.4393 9.72347 10.413ZM8.93748 4.31302C8.93748 4.31302 8.9542 4.2999 8.95754 4.29335L9.30204 3.87356L9.36225 3.81453L9.81712 3.3849C9.91077 3.28323 10.0111 3.18813 10.1114 3.0963C10.2218 2.99791 10.3322 2.89296 10.4325 2.78146C10.5596 2.64044 10.6901 2.50269 10.8205 2.36823C10.874 2.31248 10.9275 2.25344 10.9811 2.19769C11.1081 2.06323 11.2085 1.91893 11.2854 1.77135C11.3657 1.61393 11.6232 1.46635 11.8072 1.47618C11.8339 1.47946 11.8507 1.4893 11.8707 1.5221C11.9811 1.68936 12.0346 1.85006 12.0346 2.01732C12.0346 2.1321 12.0112 2.24033 11.9644 2.34199C11.7604 2.81097 11.6098 3.30619 11.466 3.78501C11.4359 3.88012 11.4058 3.97523 11.3791 4.07033C11.155 4.79512 10.874 5.64781 10.4994 6.45131C10.3523 6.77271 10.2084 7.05803 9.96763 7.28761C9.88067 7.37287 9.78032 7.46798 9.66661 7.53685C9.50941 7.62868 9.35221 7.74019 9.2017 7.87137C9.12812 7.93368 9.04116 7.9468 8.94417 7.95992C8.9542 7.92384 8.96758 7.89105 8.9843 7.85825C9.10805 7.56309 9.05454 7.35976 8.80035 7.1597C8.6398 7.03508 8.46588 6.90717 8.2351 6.88094C8.16821 6.8711 8.11804 6.8219 8.07456 6.72024C7.96753 6.47427 7.94077 6.22174 7.99429 5.97577C8.108 5.46088 8.35217 4.9919 8.71339 4.58195C8.7669 4.5262 8.81373 4.46388 8.85052 4.40157C8.87393 4.36222 8.90403 4.32942 8.93748 4.31302ZM7.05779 4.44749C7.05779 4.36878 7.06448 4.29007 7.06448 4.21136C7.07117 4.16872 7.10127 3.96211 7.13472 3.77517L7.15144 3.6735C7.21499 3.32915 7.27854 3.00447 7.50263 2.73226C7.6431 2.56173 7.81368 2.42726 8.01101 2.33543C8.07456 2.30264 8.1749 2.27968 8.29531 2.41742C8.37892 2.51581 8.44916 2.6306 8.49933 2.76506C8.58629 2.99463 8.6699 3.2242 8.75352 3.45705L8.82376 3.65711C8.86724 3.76861 8.85051 3.84732 8.77359 3.92931C8.54281 4.18184 8.25517 4.49668 8.04446 4.8476C7.77354 5.30346 7.62303 5.70029 7.57286 6.09384C7.53607 6.37588 7.57621 6.63825 7.69661 6.86454C7.69996 6.87438 7.70665 6.88422 7.70665 6.89078H7.68658C7.63975 6.8875 7.59628 6.89406 7.54611 6.89734C7.52604 6.90061 7.50597 6.90061 7.47252 6.90717C7.44911 6.91045 7.44242 6.91045 7.44242 6.91045C7.44242 6.91045 7.43573 6.89734 7.43573 6.86126C7.43573 6.59233 7.38891 6.32997 7.29191 6.05776C7.15144 5.66749 7.09793 5.25426 7.06113 4.90007C7.04776 4.75249 7.05444 4.59507 7.06113 4.44749H7.05779ZM1.14112 6.80223C1.03744 6.71368 0.940442 6.60873 0.856826 6.49067C0.810001 6.43163 0.79328 6.38244 0.806659 6.34309C0.816692 6.30373 0.860174 6.26765 0.933756 6.23486C1.23812 6.11351 1.56589 6.04464 1.91373 6.03808C1.93715 6.03808 1.95721 6.0348 1.97728 6.0348C2.34185 6.0348 2.72648 6.11351 3.17132 6.27094C3.2449 6.29717 3.31514 6.32341 3.38537 6.34636C3.57602 6.41196 3.77335 6.47755 3.95731 6.57266C4.20481 6.694 4.4289 6.86126 4.64296 7.02196C4.68979 7.05803 4.73327 7.09083 4.78009 7.12363C4.82357 7.15642 4.8704 7.1925 4.91388 7.22529C5.00753 7.29744 5.10452 7.3696 5.20486 7.43519C5.39885 7.56637 5.60622 7.63524 5.82696 7.6418H5.95406C6.04771 7.64836 6.1447 7.64836 6.2417 7.64836C6.29856 7.64836 6.34873 7.62212 6.37214 7.57949C6.39555 7.54013 6.3922 7.48438 6.35876 7.43191C6.30859 7.34992 6.23166 7.30072 6.14136 7.29744C5.62628 7.26793 5.28513 6.95965 4.9908 6.63169C4.7734 6.39228 4.61286 6.11024 4.45566 5.83475L4.4289 5.78884C4.22823 5.43792 4.00079 5.09028 3.78339 4.75577C3.71649 4.6541 3.6496 4.55243 3.58271 4.44749C3.49241 4.30646 3.42216 4.16544 3.37534 4.0277C3.275 3.71942 3.13787 3.42098 3.00408 3.13565C2.95391 3.03071 2.90375 2.92248 2.85692 2.81753C2.77331 2.6306 2.70307 2.4371 2.63618 2.24689L2.57597 2.06979C2.50239 1.86973 2.45557 1.66968 2.4054 1.44339C2.34854 1.19742 2.32512 0.935053 2.33181 0.63989C2.33181 0.580858 2.34185 0.531664 2.36191 0.48575C2.38198 0.436556 2.39871 0.426717 2.40874 0.423438C2.41543 0.423438 2.43215 0.423438 2.47563 0.449674C2.59604 0.525105 2.7131 0.620213 2.82348 0.708761C2.86361 0.741557 2.90375 0.774353 2.94054 0.807149C3.6496 1.37452 4.16802 1.83694 4.6162 2.31576C4.99749 2.71587 5.37543 3.16517 5.81693 3.72598C6.3019 4.3491 6.57616 5.05093 6.78353 5.65765C6.81029 5.73636 6.83704 5.81507 6.86714 5.8905C6.94073 6.08728 7.01766 6.29061 7.04776 6.50051C7.06114 6.60545 7.07451 6.71696 7.06782 6.83174C7.05779 7.01212 6.97417 7.1433 6.82366 7.21873C6.47916 7.39583 6.4591 7.70739 6.47582 7.92384V7.94352C6.47917 7.97632 6.48251 8.00911 6.47916 8.01567C6.47248 8.02223 6.429 8.03207 6.39555 8.03535C6.02095 8.10094 5.72662 8.20261 5.47243 8.36003C5.41223 8.39283 5.37209 8.43218 5.33865 8.47809C5.26841 8.58304 5.16138 8.63879 5.01422 8.64535C4.7433 8.65847 4.49914 8.63551 4.27171 8.56992C4.17471 8.54041 4.08106 8.51417 3.98407 8.48793C3.78339 8.43218 3.57602 8.37315 3.37534 8.30756C3.0275 8.18949 2.683 7.996 2.31509 7.71723L2.10772 7.56309C1.78664 7.3204 1.45217 7.06787 1.14112 6.80223ZM2.46225 9.8096C2.17127 9.80305 1.95387 9.63251 1.77326 9.47509C1.77326 9.47509 1.76657 9.46853 1.76323 9.46853C1.66623 9.37014 1.39866 9.25535 1.1846 9.17009C1.18126 9.17009 1.17457 9.16681 1.17122 9.16681C1.08426 9.14713 1.00065 9.12089 0.917032 9.08154C0.796625 9.0225 0.662839 8.96675 0.508986 8.911C0.462161 8.8946 0.432059 8.87492 0.42537 8.85525C0.415336 8.83557 0.425367 8.79949 0.44878 8.75358C0.539085 8.57648 0.689596 8.43874 0.937099 8.30756C1.08426 8.23213 1.2515 8.18949 1.39866 8.18949H1.4388C1.61272 8.18949 1.72978 8.21245 1.83012 8.27148C2.02745 8.38299 2.24485 8.4289 2.45556 8.46826L2.51911 8.48137C2.67631 8.51417 2.82682 8.57976 2.97064 8.64207C3.01412 8.66175 3.06094 8.68143 3.10442 8.69783C3.6496 8.9274 4.23826 9.0553 4.85367 9.08154H4.88378C4.88378 9.08154 4.90719 9.08154 4.91388 9.08482C4.94063 9.09138 4.96739 9.0881 4.99415 9.08482C5.04097 9.08154 5.04432 9.08482 5.05101 9.10449C5.08445 9.18976 5.051 9.30455 4.9908 9.35374C4.92391 9.40622 4.84029 9.41605 4.74999 9.42589H4.72323C4.53927 9.45213 4.38542 9.49149 4.24829 9.54396C4.06099 9.61939 3.87369 9.69154 3.68639 9.76369C3.53923 9.81944 3.39541 9.87848 3.24825 9.93423C3.2148 9.94735 3.19807 9.95063 3.18135 9.94407C2.94722 9.83912 2.69638 9.81616 2.46225 9.8096ZM3.76332 12.266C3.25828 12.6825 2.83016 13.1745 2.47563 13.5975C2.25154 13.873 2.0007 14.1255 1.76323 14.3551C1.57927 14.5322 1.43545 14.7093 1.32842 14.893C1.26487 14.9979 1.1846 15.0438 1.07088 15.0307C0.759831 15.0012 0.689595 14.9684 0.622702 14.6798C0.582567 14.4961 0.572532 14.3092 0.569187 14.0862C0.555808 13.791 0.662839 13.4631 0.759834 13.2105C1.01403 12.5284 1.45886 11.8987 2.11107 11.2789C2.65959 10.7607 3.20811 10.3868 3.79008 10.1277C4.17805 9.95719 4.51252 9.86864 4.84029 9.84896C4.87374 9.84896 4.91388 9.84896 4.95067 9.82928C4.98411 9.81288 5.01421 9.80632 5.04766 9.80632C5.11121 9.80632 5.17476 9.83912 5.25837 9.91455C5.30185 9.95391 5.35202 9.99654 5.35202 10.0129C5.35202 10.0293 5.29851 10.0818 5.25837 10.1179C5.11121 10.2589 4.98746 10.4163 4.89381 10.5836C4.69982 10.9312 4.73326 11.187 5.00753 11.4658C5.02425 11.4822 5.0276 11.4888 5.03094 11.492C5.0276 11.492 5.02425 11.4986 5.00753 11.5117C4.96405 11.5412 4.91388 11.5675 4.85033 11.5904C4.42221 11.7446 4.06434 12.02 3.76332 12.266ZM5.5527 15.621C5.49919 15.6833 5.44902 15.7522 5.40219 15.8178C5.37878 15.8506 5.35537 15.8834 5.32861 15.9162C5.09114 16.2277 4.84364 16.5098 4.58945 16.7623C4.556 16.7951 4.51586 16.8279 4.4657 16.864C4.37205 16.9263 4.34194 16.923 4.27505 16.8345C4.18809 16.723 4.13458 16.5885 4.11116 16.4245C4.08106 16.2343 4.07437 16.0375 4.06433 15.8473C4.05765 15.7096 4.05096 15.5718 4.03758 15.4341C4.01417 15.1094 4.0242 14.7749 4.06768 14.4371C4.08106 14.3223 4.09444 14.2075 4.10782 14.0895C4.14461 13.7385 4.18474 13.3745 4.28508 13.0269C4.38542 12.6858 4.50917 12.43 4.68309 12.2234C4.76337 12.1217 4.85033 12.0594 4.95067 12.0266C5.14131 11.9676 5.28513 11.8495 5.41891 11.7347C5.47577 11.6822 5.52595 11.6593 5.57946 11.6593C5.59618 11.6593 5.6129 11.6626 5.63297 11.6691C5.68649 11.6822 5.69318 11.7052 5.68649 11.7413C5.68314 11.761 5.6798 11.7806 5.67645 11.8003C5.67311 11.8331 5.66642 11.8659 5.65639 11.8987C5.57611 12.1742 5.54601 12.4529 5.52595 12.7875C5.50588 13.1548 5.49584 13.4565 5.49584 13.7385C5.49919 14.1715 5.55939 14.5814 5.67311 14.9586C5.75673 15.2275 5.71994 15.4308 5.5527 15.621ZM5.8002 11.2297C5.60287 11.1477 5.40888 11.0624 5.21489 10.9804C5.13128 10.9476 5.10787 10.9115 5.10787 10.9017C5.12459 10.6098 5.41891 10.236 5.72662 10.2294L5.93064 10.2228C6.0544 10.2163 6.17481 10.213 6.29521 10.2097C6.3688 10.2064 6.44906 10.213 6.51596 10.2458C6.56613 10.2687 6.60961 10.2753 6.64974 10.2589C6.69657 10.2425 6.73001 10.2064 6.75677 10.1441L6.7668 10.1179C6.77684 10.0916 6.78687 10.0621 6.80025 10.0359C6.8036 10.0261 6.80694 10.0261 6.81029 10.0293C6.81029 10.0982 6.82366 10.1507 6.86045 10.1868C6.8939 10.2261 6.94741 10.2425 7.01765 10.2392C6.96748 10.4524 7.03772 10.6459 7.10127 10.8197C7.11465 10.8558 7.12468 10.8984 7.13137 10.9378L7.13806 10.9739L7.14141 10.987C7.13806 10.9903 7.13472 10.9935 7.13137 10.9968C7.05445 11.105 6.81363 11.1903 6.63302 11.2297C6.62968 11.2297 6.62299 11.2329 6.6163 11.2329C6.55275 11.2592 6.47582 11.2723 6.36545 11.2723C6.00757 11.3248 5.92061 11.2789 5.91727 11.2789C5.91058 11.269 5.90055 11.2625 5.88717 11.2592C5.87044 11.2559 5.84368 11.2461 5.8002 11.2297ZM7.25178 13.9714C7.04107 14.4994 6.74005 14.9684 6.35207 15.3652C6.34873 15.3652 6.34204 15.3751 6.34204 15.3751C6.32866 15.3849 6.31863 15.398 6.30525 15.4079C6.29187 15.4243 6.26176 15.4505 6.25507 15.4538C6.23835 15.4439 6.22832 15.4308 6.22163 15.4144C6.22163 15.4046 6.22163 15.4079 6.21494 15.4013C6.15139 15.2701 6.07112 14.929 6.04437 14.8241C5.93734 14.3846 5.88717 13.9386 5.90054 13.4991C5.90389 13.3909 5.90389 13.2827 5.90389 13.1745C5.90389 12.9974 5.90389 12.817 5.91727 12.6399C5.94068 12.3414 6.02095 12.0496 6.09119 11.8298C6.12464 11.7282 6.16477 11.7052 6.31193 11.7052H6.35876C6.429 11.7118 6.50592 11.715 6.51596 11.7249C6.52265 11.7347 6.5193 11.7839 6.5193 11.8265C6.51596 11.8495 6.51596 11.8757 6.51596 11.902C6.50258 12.3775 6.68654 12.794 6.88053 13.1843C6.88387 13.1941 6.89056 13.2073 6.89724 13.2171C6.91397 13.24 6.92735 13.263 6.93404 13.2892C6.96748 13.4007 7.04775 13.4696 7.1113 13.5155C7.28857 13.6434 7.32871 13.7746 7.25178 13.9714ZM7.81034 12.7284L7.78023 12.794C7.70999 12.9514 7.63641 13.1121 7.52604 13.2499C7.49594 13.2892 7.45915 13.3089 7.4257 13.3089H7.41901C7.38557 13.3056 7.35546 13.2827 7.3354 13.2433C7.15144 12.8859 6.9608 12.5153 6.88053 12.1053C6.82367 11.8003 6.88721 11.5904 7.09123 11.4297C7.12803 11.4002 7.16147 11.3707 7.19492 11.3412C7.22502 11.3117 7.25178 11.2854 7.28522 11.2592C7.31198 11.2395 7.33539 11.2297 7.36215 11.2297C7.38556 11.2297 7.41232 11.2395 7.43573 11.2625C7.52604 11.3444 7.62638 11.3936 7.75682 11.4166C7.88392 11.4396 7.9575 11.5248 7.97757 11.6724C7.98426 11.7314 7.99094 11.797 7.99429 11.8593C7.99763 11.8921 8.00098 11.9282 8.00098 11.9577C8.01436 12.2463 7.91402 12.5087 7.81034 12.7284ZM11.4761 15.7096L11.4894 15.7686C11.5329 15.9523 11.5731 16.1228 11.5931 16.2901C11.5931 16.3688 11.5697 16.4278 11.5262 16.4606C11.4861 16.4868 11.4326 16.4901 11.369 16.4704C11.1784 16.4081 10.9777 16.3393 10.7302 16.2507C10.6098 16.2081 10.4994 16.1392 10.3656 16.0277C10.2452 15.9227 10.1181 15.8244 9.99438 15.726C9.74688 15.5325 9.49269 15.3291 9.27863 15.0897C8.88731 14.6437 8.54281 14.2338 8.27524 13.7549C8.20835 13.6303 8.16821 13.4959 8.12473 13.3548C8.10132 13.2663 8.07456 13.1745 8.03777 13.0892C8.02773 13.0531 8.0478 13.0105 8.06118 12.9908C8.29196 12.6169 8.37892 12.1873 8.34213 11.6035C8.3321 11.4461 8.35217 11.4199 8.51605 11.3838C8.57626 11.3674 8.6398 11.3576 8.70335 11.3444C8.75018 11.3379 8.80035 11.3281 8.84717 11.3182C8.96089 11.2953 9.05788 11.2395 9.15488 11.1837L9.19502 11.1641C9.19502 11.1641 9.2084 11.1542 9.21174 11.1542C9.21174 11.1542 9.21174 11.1564 9.21174 11.1608C9.28532 11.4625 9.46593 11.7052 9.6432 11.9381L9.66995 11.9774C9.76695 12.102 9.85725 12.2201 9.93084 12.3513C9.95759 12.3972 9.98769 12.4431 10.0379 12.4726C10.3288 12.6432 10.4693 12.9219 10.6165 13.2138C10.961 13.8992 11.2252 14.6699 11.4727 15.7096H11.4761ZM12.5564 11.3182C12.5564 11.3182 12.5564 11.3215 12.5631 11.3248C12.737 11.5215 12.8975 11.7347 13.048 11.9446L13.145 12.0725C13.3792 12.3939 13.5899 12.6432 13.8006 12.8563C13.8441 12.899 13.8574 12.9186 13.8574 12.9186C13.8508 12.9318 13.7905 12.958 13.7705 12.9678C13.5731 13.0662 13.3557 13.0892 13.0949 13.0925H13.0748C12.2554 13.0925 11.543 12.9219 10.8941 12.5776C10.6499 12.4464 10.3723 12.2988 10.1482 12.0856C10.0713 12.0102 10.0211 11.9184 9.96428 11.8233C9.93084 11.7708 9.90073 11.715 9.8606 11.6626C9.79705 11.574 9.74019 11.4822 9.67999 11.3904C9.64654 11.3379 9.61309 11.2887 9.57965 11.2362C9.53617 11.1739 9.50606 11.0985 9.48934 11.0132C9.46927 10.8984 9.50607 10.8361 9.6131 10.8C9.66995 10.7804 9.72681 10.7705 9.77698 10.7705C9.97431 10.7607 10.1616 10.6918 10.3623 10.5573C10.3723 10.5508 10.3824 10.5442 10.389 10.5377L10.4258 10.5016C10.4426 10.4885 10.5061 10.4557 10.7135 10.4557C10.7703 10.4557 10.8406 10.459 10.9242 10.4655H10.9376C11.2954 10.4688 11.5898 10.5016 11.864 10.6393C11.9376 10.6754 12.0045 10.7246 12.0714 10.7738C12.1048 10.8 12.1416 10.8263 12.1818 10.8558L12.1985 10.8755C12.4059 11.1313 12.5263 11.2821 12.5564 11.3182ZM17.5232 9.0881C17.4095 9.26191 17.2523 9.39638 17.0549 9.48493C16.4194 9.76369 15.8508 9.95391 15.3124 10.0654C15.0414 10.1212 14.7605 10.154 14.4795 10.1605C14.0983 10.1736 13.7337 10.2556 13.3959 10.3442C13.1016 10.4196 12.8072 10.3901 12.5564 10.354C12.2788 10.3179 12.0045 10.2458 11.7369 10.1802C11.5831 10.1408 11.4326 10.1015 11.2787 10.0687C11.2152 10.0556 11.1483 10.0425 11.0847 10.0293C11.0112 10.0129 10.9342 9.99654 10.8606 9.98014C10.7637 9.95719 10.7168 9.90471 10.7135 9.81616C10.7101 9.6653 10.6834 9.45213 10.476 9.30455C10.4727 9.30127 10.4626 9.29471 10.4626 9.28815C10.4593 9.28159 10.466 9.26847 10.476 9.25863C10.6031 9.11105 10.6265 8.9274 10.6332 8.76998C10.6332 8.66503 10.6767 8.59288 10.767 8.53057C10.8305 8.48793 10.8907 8.44202 10.9543 8.3961C11.0413 8.32723 11.1316 8.25836 11.2219 8.20261C11.5864 7.98288 11.9978 7.88121 12.3557 7.80906C12.5597 7.76642 12.7637 7.74675 12.9644 7.74347C13.1751 7.76642 13.3892 7.77626 13.5966 7.78282C13.9979 7.79922 14.4127 7.81562 14.804 7.94024C15.0113 8.00255 15.2221 8.01567 15.4261 8.02551C15.5197 8.03207 15.6167 8.03535 15.7104 8.04519C15.9077 8.06815 16.1084 8.11078 16.299 8.15014C16.376 8.16653 16.4529 8.18293 16.5265 8.19605C16.5532 8.20261 16.58 8.21245 16.6 8.22885C16.8308 8.39283 17.0817 8.47809 17.3459 8.56336C17.4763 8.606 17.5633 8.67159 17.5968 8.76014C17.6302 8.85197 17.6034 8.96347 17.5232 9.0881Z" fill="#282828"/>
</g>
<g id="Group_4">
<path id="Vector_7" d="M13.3554 5.91358C13.3521 5.99229 13.2986 6.09068 13.2585 6.15627C13.0745 6.46127 12.8604 6.81547 12.6163 7.14014C12.5059 7.29428 12.3521 7.39595 12.1581 7.44515C12.0912 7.46482 12.0243 7.48122 11.9574 7.49762C11.7534 7.54681 11.5393 7.59601 11.342 7.69439C11.0175 7.86165 10.7767 8.03219 10.5928 8.23552L10.576 8.2552C10.576 8.2552 10.5593 8.27488 10.5459 8.28472C10.4556 8.37655 10.4556 8.37983 10.3653 8.30112C10.1178 8.09778 9.90378 7.97972 9.67969 7.9174C9.67969 7.91413 9.68638 7.91413 9.68972 7.91085C9.75996 7.85837 9.83019 7.8059 9.89709 7.75343L10.0309 7.65504C10.158 7.55993 10.2617 7.44515 10.3653 7.33364C10.4255 7.26477 10.4924 7.1959 10.5593 7.13031C10.5995 7.09423 10.6429 7.06143 10.6864 7.02864C10.7767 6.95977 10.8704 6.8909 10.9239 6.79251C11.1279 6.42847 11.4824 6.30385 11.857 6.17267L11.9273 6.14971C12.041 6.10708 12.1547 6.06772 12.2684 6.02836C12.5527 5.93326 12.8437 5.83159 13.1247 5.71353C13.1815 5.68729 13.235 5.68729 13.2752 5.71353C13.3253 5.74632 13.3554 5.82175 13.3554 5.91358Z" fill="#EFEDE4"/>
<path id="Vector_8" d="M17.5097 9.07827C17.3926 9.25209 17.2354 9.38655 17.0381 9.4751C16.406 9.75387 15.834 9.94408 15.2955 10.0556C15.0246 10.1113 14.7437 10.1441 14.4627 10.1507C14.0814 10.1638 13.7169 10.2458 13.3791 10.3344C13.0847 10.4098 12.7904 10.3803 12.5395 10.3442C12.2619 10.3081 11.9877 10.236 11.7201 10.1704C11.5663 10.131 11.4157 10.0917 11.2619 10.0589C11.1983 10.0457 11.1348 10.0326 11.0679 10.0195C10.9943 10.0031 10.9174 9.98672 10.8438 9.97032C10.7468 9.94736 10.7 9.89489 10.6966 9.80634C10.6933 9.65548 10.6665 9.44231 10.4592 9.29472C10.4592 9.29144 10.4458 9.28489 10.4458 9.27833C10.4458 9.27177 10.4491 9.25865 10.4592 9.24881C10.5896 9.10123 10.6097 8.91757 10.6164 8.76015C10.6197 8.65521 10.6632 8.58305 10.7502 8.52074C10.8137 8.47811 10.8773 8.43219 10.9375 8.38628C11.0244 8.31741 11.1147 8.24854 11.2084 8.19278C11.5696 7.97305 11.9843 7.87139 12.3389 7.79923C12.5429 7.7566 12.7503 7.73692 12.9476 7.73364C13.1583 7.7566 13.3724 7.76644 13.5797 7.773C13.9811 7.7894 14.3958 7.80579 14.7871 7.93042C14.9979 7.99273 15.2052 8.00585 15.4093 8.01569C15.5029 8.02225 15.5999 8.02553 15.6935 8.03536C15.8909 8.05832 16.0916 8.10096 16.2822 8.14031C16.3591 8.15671 16.4361 8.17311 16.5096 8.18622C16.5364 8.19278 16.5631 8.20262 16.5832 8.21902C16.814 8.383 17.0682 8.46827 17.3291 8.55354C17.4595 8.59617 17.5465 8.66176 17.5799 8.75031C17.6134 8.84214 17.59 8.95365 17.5097 9.07827Z" fill="white"/>
<path id="Vector_9" d="M13.8441 12.9088C13.8441 12.9088 13.7738 12.9481 13.7538 12.958C13.5564 13.0563 13.339 13.0793 13.0781 13.0826H13.0581C12.2386 13.0826 11.5262 12.912 10.8774 12.5677C10.6332 12.4365 10.3556 12.2889 10.1315 12.0758C10.0546 12.0003 10.0044 11.9085 9.94756 11.8134C9.91746 11.7609 9.88401 11.7052 9.84722 11.6527C9.78367 11.5641 9.72346 11.4723 9.66326 11.3805C9.62981 11.328 9.59637 11.2788 9.56292 11.2263C9.51944 11.164 9.48934 11.0886 9.47596 11.0033C9.45589 10.8885 9.49268 10.8262 9.59637 10.7902C9.65323 10.7705 9.71009 10.7606 9.76026 10.7606C9.95759 10.7508 10.1449 10.6819 10.3456 10.5475C10.3589 10.5409 10.3656 10.5343 10.3723 10.5278L10.3824 10.518L10.4091 10.4917C10.4091 10.4917 10.4894 10.4458 10.6968 10.4458C10.7536 10.4458 10.8239 10.4491 10.9075 10.4556H10.9208C11.2787 10.4589 11.5731 10.4917 11.8507 10.6295C11.9242 10.6655 11.9878 10.7147 12.0547 10.7639C12.0915 10.7902 12.1249 10.8164 12.165 10.8459L12.1818 10.8656C12.3891 11.1214 12.5096 11.2723 12.5397 11.3083C12.543 11.3083 12.543 11.3116 12.5463 11.3149C12.7203 11.5117 12.8808 11.7248 13.0313 11.9347L13.1283 12.0626C13.3624 12.384 13.5731 12.6333 13.7839 12.8465C13.8273 12.8891 13.8407 12.9088 13.8441 12.9088Z" fill="#F4F4F4"/>
<path id="Vector_10" d="M11.5764 16.2801C11.5764 16.3588 11.553 16.4179 11.5095 16.4507C11.4694 16.4769 11.4159 16.4802 11.3523 16.4605C11.1617 16.3982 10.961 16.3293 10.7135 16.2408C10.5931 16.1981 10.4827 16.1293 10.349 16.0177C10.2285 15.9128 10.1014 15.8144 9.98104 15.716C9.73019 15.5225 9.476 15.3192 9.26195 15.0798C8.87062 14.6338 8.52613 14.2238 8.25856 13.745C8.19166 13.6204 8.15153 13.4859 8.11139 13.3449C8.08463 13.2563 8.05788 13.1645 8.02443 13.0792C8.01105 13.0432 8.03112 13.0005 8.0445 12.9809C8.27862 12.607 8.36558 12.1774 8.32545 11.5936C8.31541 11.4362 8.33548 11.4099 8.49937 11.3739C8.55957 11.3575 8.62312 11.3476 8.68667 11.3345C8.73349 11.3279 8.78366 11.3181 8.83049 11.3083C8.9442 11.2853 9.04455 11.2296 9.1382 11.1738L9.17833 11.1541C9.17833 11.1541 9.19171 11.1443 9.19506 11.1443C9.19506 11.1476 9.1984 11.1476 9.1984 11.1508C9.27198 11.4526 9.45259 11.6953 9.62986 11.9281L9.65661 11.9675C9.75361 12.0921 9.84391 12.2102 9.91749 12.3413C9.94425 12.3872 9.97436 12.4332 10.0245 12.4627C10.3155 12.6332 10.456 12.912 10.6031 13.2039C10.951 13.8893 11.2119 14.66 11.4594 15.6996L11.4728 15.7587C11.5162 15.9423 11.5564 16.1129 11.5764 16.2801Z" fill="#F4F4F4"/>
<path id="Vector_11" d="M7.9874 11.9478C7.99744 12.2364 7.8971 12.4988 7.79341 12.7185L7.76331 12.7841C7.69308 12.9415 7.61949 13.1022 7.50912 13.2399C7.48236 13.2793 7.44557 13.299 7.40878 13.299H7.40209C7.36864 13.2957 7.33854 13.2727 7.31847 13.2334C7.13452 12.8759 6.94387 12.5053 6.86695 12.0954C6.80674 11.7904 6.87029 11.5805 7.07431 11.4198C7.1111 11.3903 7.14455 11.3607 7.178 11.3312C7.2081 11.3017 7.2382 11.2755 7.2683 11.2492C7.29506 11.2296 7.32182 11.2197 7.34523 11.2197C7.37199 11.2197 7.3954 11.2296 7.41881 11.2525C7.50912 11.3345 7.6128 11.3837 7.7399 11.4067C7.87034 11.4296 7.94058 11.5149 7.96064 11.6625C7.97068 11.7215 7.97402 11.7871 7.97737 11.8494C7.98071 11.8822 7.98406 11.9183 7.9874 11.9478Z" fill="#EFEDE4"/>
<path id="Vector_12" d="M7.23519 13.9615C7.02782 14.4895 6.72346 14.9585 6.33548 15.3553C6.33214 15.3553 6.32545 15.3652 6.32545 15.3652C6.31207 15.375 6.30203 15.3881 6.292 15.398C6.27528 15.4144 6.24852 15.4406 6.24183 15.4439C6.22176 15.434 6.21173 15.4209 6.20838 15.4045C6.20504 15.3947 6.20839 15.398 6.2017 15.3914C6.1348 15.2602 6.05453 14.9191 6.03112 14.8142C5.92074 14.3747 5.87057 13.9287 5.88395 13.4892C5.8873 13.381 5.8873 13.2728 5.8873 13.1646C5.8873 12.9875 5.8873 12.8071 5.90068 12.63C5.92409 12.3316 6.00771 12.0397 6.0746 11.8199C6.10805 11.7183 6.14818 11.6953 6.29535 11.6953H6.34217C6.41575 11.7019 6.48934 11.7052 6.49937 11.715C6.50606 11.7248 6.50271 11.774 6.50271 11.8167C6.49937 11.8396 6.49937 11.8659 6.49937 11.8921C6.48599 12.3676 6.66995 12.7841 6.86393 13.1744C6.87062 13.1842 6.87731 13.1974 6.884 13.2072C6.89738 13.2302 6.91076 13.2531 6.91745 13.2794C6.9509 13.3909 7.03117 13.4597 7.09806 13.5056C7.27532 13.6335 7.31546 13.7647 7.23519 13.9615Z" fill="white"/>
<path id="Vector_13" d="M5.53618 15.6112C5.48267 15.6735 5.4325 15.7423 5.38568 15.8079C5.36226 15.8407 5.33885 15.8735 5.31544 15.9063C5.07797 16.2179 4.82712 16.4999 4.57293 16.7524C4.53948 16.7852 4.49935 16.818 4.44918 16.8541C4.35887 16.9164 4.32542 16.9131 4.25853 16.8246C4.17157 16.7131 4.11806 16.5786 4.09464 16.4146C4.06789 16.2244 4.05785 16.0277 4.04782 15.8374C4.04113 15.6997 4.03444 15.562 4.02106 15.4242C4.00099 15.0995 4.00768 14.765 4.05116 14.4272C4.06454 14.3124 4.07792 14.1977 4.0913 14.0796C4.12809 13.7287 4.16822 13.3646 4.26856 13.017C4.3689 12.6759 4.49265 12.4201 4.66658 12.2135C4.74685 12.1118 4.83381 12.0495 4.93415 12.0167C5.12479 11.9577 5.26861 11.8396 5.4024 11.7248C5.45925 11.6724 5.50943 11.6494 5.56294 11.6494C5.57966 11.6494 5.59973 11.6527 5.61646 11.6593C5.67332 11.6724 5.67666 11.6953 5.67332 11.7314C5.66663 11.7511 5.66328 11.7708 5.65993 11.7904C5.65659 11.8232 5.6499 11.856 5.63987 11.8888C5.5596 12.1643 5.52949 12.4431 5.50943 12.7776C5.48936 13.1449 5.47933 13.4466 5.47933 13.7287C5.47933 14.1616 5.54287 14.5715 5.65659 14.9487C5.74021 15.2176 5.70342 15.4209 5.53618 15.6112Z" fill="#F4F4F4"/>
<path id="Vector_14" d="M4.87703 10.5736C4.68304 10.9213 4.71649 11.1771 4.99409 11.4559C5.00747 11.4723 5.01082 11.4788 5.01416 11.4821C5.01082 11.4821 5.00747 11.4887 4.99075 11.5018C4.94727 11.5313 4.8971 11.5575 4.83355 11.5805C4.40543 11.7346 4.04756 12.0101 3.74654 12.2561C3.2415 12.6726 2.81339 13.1645 2.4622 13.5876C2.23476 13.8631 1.98392 14.1156 1.74645 14.3452C1.56249 14.5223 1.42202 14.6994 1.31164 14.883C1.24809 14.988 1.16782 15.0339 1.0541 15.0208C0.743052 14.9912 0.676161 14.9584 0.605923 14.6698C0.565788 14.4862 0.555752 14.2993 0.552408 14.0762C0.539029 13.7811 0.64606 13.4531 0.743055 13.2006C1.00059 12.5184 1.44208 11.8888 2.09429 11.2689C2.64281 10.7507 3.19133 10.3769 3.7733 10.1178C4.16128 9.94725 4.49574 9.8587 4.82351 9.83902C4.86031 9.83902 4.8971 9.83902 4.93389 9.81934C4.96733 9.80295 4.99744 9.79639 5.03089 9.79639C5.09443 9.79639 5.15798 9.82918 5.24159 9.90461C5.28507 9.94397 5.33525 9.9866 5.33859 10.003C5.33859 10.0161 5.28173 10.0719 5.24494 10.1079C5.09443 10.249 4.97068 10.4064 4.87703 10.5736Z" fill="white"/>
<path id="Vector_15" d="M4.97409 9.34394C4.9072 9.39641 4.82358 9.40625 4.73328 9.41609H4.70652C4.52257 9.44233 4.36871 9.48168 4.23158 9.53416C4.04428 9.60959 3.85698 9.68174 3.66968 9.75389C3.52586 9.80964 3.3787 9.86867 3.23154 9.92443C3.20143 9.93754 3.18137 9.94082 3.16464 9.93426C2.93386 9.82932 2.68301 9.80636 2.44554 9.7998C2.15456 9.79324 1.93716 9.6227 1.75989 9.46528C1.75655 9.46528 1.74986 9.45872 1.74652 9.45872C1.64952 9.36034 1.38195 9.24555 1.16789 9.16028C1.16455 9.16028 1.15786 9.157 1.15451 9.157C1.0709 9.13733 0.983936 9.11109 0.903664 9.07173C0.779913 9.0127 0.646129 8.95695 0.492275 8.9012C0.44545 8.8848 0.415348 8.86512 0.408659 8.84544C0.398625 8.82576 0.408662 8.78969 0.432074 8.74378C0.522379 8.56668 0.672885 8.42894 0.920389 8.29775C1.06755 8.22232 1.23479 8.17969 1.38195 8.17969H1.42208C1.59935 8.17969 1.71307 8.20264 1.81341 8.26168C2.01074 8.37318 2.22815 8.4191 2.43886 8.45845L2.5024 8.47157C2.6596 8.50437 2.81011 8.56996 2.95393 8.63227C2.99741 8.65195 3.04423 8.67162 3.08771 8.68802C3.63289 8.91759 4.22155 9.0455 4.83696 9.07173H4.86706C4.86706 9.07173 4.89048 9.07173 4.89717 9.07501C4.92392 9.08157 4.95403 9.07829 4.97744 9.07501C5.02426 9.07173 5.02761 9.07501 5.03764 9.09469C5.06774 9.17996 5.03764 9.29475 4.97409 9.34394Z" fill="#EFEDE4"/>
<path id="Vector_16" d="M12.0183 2.00742C12.0183 2.1222 11.9948 2.23043 11.9514 2.3321C11.744 2.80108 11.5935 3.29629 11.4497 3.77511C11.4196 3.87022 11.3928 3.96533 11.3627 4.06044C11.1386 4.78522 10.8577 5.63792 10.4864 6.44141C10.3359 6.76281 10.1921 7.04814 9.95127 7.27771C9.8643 7.36298 9.76397 7.45809 9.65025 7.52696C9.49305 7.61878 9.33585 7.73029 9.18535 7.86147C9.11176 7.92379 9.0248 7.9369 8.92781 7.95002C8.93784 7.91395 8.95456 7.88115 8.96794 7.84836C9.09169 7.55319 9.04152 7.34986 8.78398 7.1498C8.62679 7.02518 8.44952 6.89728 8.21874 6.87104C8.15185 6.8612 8.10168 6.81201 8.0582 6.71034C7.95117 6.46437 7.92442 6.21184 7.97793 5.96588C8.09165 5.45098 8.3358 4.982 8.70037 4.57205C8.75388 4.5163 8.79737 4.45399 8.83416 4.39167C8.86091 4.35232 8.89102 4.31952 8.92446 4.30313C8.93115 4.29657 8.93784 4.29001 8.94118 4.28345L9.28903 3.86366C9.30575 3.84398 9.32582 3.82431 9.34589 3.80463L9.80076 3.375C9.89441 3.27334 9.99475 3.17823 10.0951 3.0864C10.2055 2.98801 10.3158 2.88307 10.4162 2.77156C10.5433 2.63054 10.6737 2.4928 10.8041 2.35833C10.8577 2.30258 10.9112 2.24355 10.9647 2.18779C11.0918 2.05333 11.1921 1.90903 11.2691 1.76145C11.3493 1.60403 11.6069 1.45645 11.7942 1.46629C11.8209 1.46957 11.8343 1.4794 11.8544 1.5122C11.9647 1.67946 12.0183 1.84016 12.0183 2.00742Z" fill="white"/>
<path id="Vector_17" d="M8.7564 3.9194C8.52562 4.17193 8.23797 4.48677 8.02726 4.83768C7.75635 5.29354 7.60584 5.69037 7.55567 6.08392C7.51888 6.36597 7.55901 6.62833 7.67942 6.85463C7.68611 6.86446 7.68946 6.8743 7.68946 6.88086H7.66939C7.62256 6.87758 7.57908 6.88414 7.53226 6.88742C7.50884 6.8907 7.48878 6.8907 7.45533 6.89726C7.43526 6.90054 7.42523 6.90054 7.42523 6.90054C7.42523 6.90054 7.41854 6.88742 7.41854 6.85135C7.41854 6.58242 7.37171 6.32005 7.27472 6.04785C7.13424 5.65758 7.08073 5.24435 7.04729 4.89016C7.03391 4.74257 7.03725 4.58515 7.04394 4.43757C7.04394 4.35886 7.04729 4.28015 7.04729 4.20144C7.05397 4.15881 7.08407 3.95219 7.11752 3.76526L7.13424 3.66359C7.20114 3.31923 7.26134 2.99456 7.48543 2.72235C7.62591 2.55181 7.79648 2.41735 7.99381 2.32552C8.05736 2.29273 8.1577 2.26977 8.27811 2.40751C8.36173 2.5059 8.43196 2.62068 8.48213 2.75515C8.56909 2.98472 8.65271 3.21429 8.73632 3.44714L8.80656 3.64719C8.85004 3.7587 8.83667 3.83741 8.7564 3.9194Z" fill="#F4F4F4"/>
<path id="Vector_18" d="M7.05127 6.82188C7.04124 7.00226 6.95762 7.13344 6.80711 7.20887C6.46262 7.38597 6.44254 7.69753 6.45927 7.91398V7.93366C6.46261 7.96645 6.46596 7.99925 6.46596 8.00581C6.45592 8.01237 6.41245 8.02221 6.379 8.02549C6.0044 8.09108 5.71341 8.19275 5.45588 8.35016C5.39902 8.38296 5.35554 8.42232 5.32209 8.46823C5.25185 8.57318 5.14483 8.62893 4.99766 8.63549C4.72675 8.64861 4.48259 8.62565 4.25515 8.56006C4.15816 8.53054 4.06451 8.50431 3.96751 8.47807C3.76683 8.42232 3.55947 8.36328 3.35879 8.29769C3.01429 8.17963 2.66645 7.98613 2.29854 7.70737L2.09117 7.55323C1.77008 7.31054 1.43562 7.05801 1.12457 6.79236C1.02088 6.70381 0.927233 6.59887 0.840272 6.4808C0.793447 6.42177 0.776726 6.37258 0.790104 6.33322C0.800138 6.29387 0.84362 6.25779 0.917202 6.225C1.22156 6.10365 1.54934 6.03478 1.89718 6.02822C1.92059 6.02822 1.94066 6.02494 1.96407 6.02494C2.32864 6.02494 2.70993 6.10365 3.15811 6.26107C3.22835 6.28731 3.29859 6.31354 3.36882 6.3365C3.55947 6.40209 3.7568 6.46768 3.94075 6.56279C4.18826 6.68414 4.41235 6.8514 4.62641 7.01209C4.67323 7.04817 4.71671 7.08097 4.76354 7.11376C4.80702 7.14656 4.85384 7.18263 4.90066 7.21543C4.99097 7.28758 5.08796 7.35973 5.1883 7.42532C5.38229 7.55651 5.59301 7.62538 5.81376 7.63194H5.9375C6.03115 7.6385 6.12815 7.6385 6.22514 7.6385C6.28535 7.6385 6.33217 7.61226 6.35558 7.56962C6.379 7.53027 6.37566 7.47452 6.34221 7.42204C6.29538 7.34005 6.21511 7.29086 6.1248 7.28758C5.60973 7.25806 5.26858 6.94978 4.97425 6.62183C4.76019 6.38242 4.5963 6.10037 4.44245 5.82489L4.41235 5.77897C4.21167 5.42806 3.98423 5.08042 3.76683 4.7459C3.69994 4.64424 3.63305 4.54257 3.56616 4.43762C3.47585 4.2966 3.40562 4.15558 3.35879 4.01784C3.25845 3.70956 3.12132 3.41111 2.98754 3.12579C2.93737 3.02084 2.8872 2.91262 2.84037 2.80767C2.75675 2.62073 2.68652 2.42724 2.61962 2.23702L2.55942 2.05993C2.48583 1.85987 2.43901 1.65982 2.38884 1.43352C2.33533 1.18756 2.30857 0.925189 2.31526 0.630027C2.3186 0.570994 2.32864 0.5218 2.34536 0.475886C2.36877 0.426693 2.38215 0.416854 2.39218 0.413574C2.39887 0.413574 2.4156 0.413574 2.45908 0.439811C2.58283 0.515241 2.69655 0.610349 2.80692 0.698898C2.84706 0.731694 2.88719 0.76449 2.92733 0.797285C3.63305 1.36465 4.15147 1.82707 4.59965 2.30589C4.98094 2.706 5.36223 3.15531 5.80037 3.71611C6.28535 4.33924 6.55961 5.04107 6.76697 5.64779C6.79373 5.7265 6.82049 5.80521 6.85059 5.88064C6.92417 6.07741 7.0011 6.28075 7.0312 6.49064C7.04458 6.59559 7.05796 6.70709 7.05127 6.82188Z" fill="white"/>
</g>
</g>
</svg>
